<svg width="173" height="55" viewBox="0 0 173 55" fill="none" xmlns="http://www.w3.org/2000/svg">
<path d="M40.5234 19.5938L45.5156 18.9609L46.3359 22.5234L50.4609 18.9609H55.1016C55.6484 18.9609 56.2188 19.2656 56.8125 19.875C57.7188 20.7656 58.2266 21.625 58.3359 22.4531L62.3672 18.9609H68.0156C68.2188 18.9609 68.5938 19.1719 69.1406 19.5938C69.7031 20.0156 70.0859 20.3672 70.2891 20.6484C70.5078 20.9297 70.6172 21.25 70.6172 21.6094L69.7969 42.0469L64.5703 42.4688L64.4766 24.4922C64.2891 24.4297 63.9375 24.3984 63.4219 24.3984C62.2031 24.3984 61.1328 24.5703 60.2109 24.9141L58.5703 25.5234L57.8438 42.0469L52.8047 42.4688L52.7109 24.4922C52.5234 24.4297 52.1719 24.3984 51.6562 24.3984C50.3438 24.3984 49.2266 24.5703 48.3047 24.9141L46.7109 25.4766L46.0781 41.8594L40.9453 42.1875L40.5234 19.5938ZM118.898 53.9062L113.953 54.2344L113.766 27.3516L119.227 26.2969L119.461 37.8281L123.727 37.0078C124.602 33.4297 125.039 30.3906 125.039 27.8906C125.039 26.4531 124.961 25.2969 124.805 24.4219C124.008 23.9844 120.812 23.7656 115.219 23.7656H113.812C113.359 23.7656 112.93 23.7812 112.523 23.8125L113.555 18.375C114.57 18.2969 115.5 18.2578 116.344 18.2578C117.203 18.2578 118.188 18.2891 119.297 18.3516C120.422 18.4141 121.547 18.5 122.672 18.6094C126.969 19.0625 129.406 19.6875 129.984 20.4844C130.562 21.2969 130.852 23.0547 130.852 25.7578C130.852 30.4609 130.086 35.1719 128.555 39.8906C128.43 40.2812 128.281 40.625 128.109 40.9219C127.953 41.2031 127.695 41.3672 127.336 41.4141L119.32 42.4688L118.898 53.9062Z" fill="#FFAE11"/>
<path d="M82.9922 6.72656C83.1641 7.33594 83.25 8.02344 83.25 8.78906C83.25 9.53906 83.2266 10.1797 83.1797 10.7109C83.1328 11.2266 83.0781 11.7109 83.0156 12.1641C82.8594 13.1484 82.6797 13.8203 82.4766 14.1797L77.0859 13.9453C77.3516 12.5703 77.4844 10.375 77.4844 7.35938L82.9922 6.72656ZM82.8047 18.5391C82.8828 20.1484 82.9219 21.5 82.9219 22.5938C82.9219 23.6875 82.8984 24.9688 82.8516 26.4375L82.3125 42L77.3203 42.4219L76.8516 19.2891L82.8047 18.5391ZM89.0625 8.55469L94.875 7.47656L95.0391 24.375L94.3125 42L89.3672 42.4219L89.0625 8.55469ZM107.18 6.72656C107.352 7.33594 107.438 8.02344 107.438 8.78906C107.438 9.53906 107.414 10.1797 107.367 10.7109C107.32 11.2266 107.266 11.7109 107.203 12.1641C107.047 13.1484 106.867 13.8203 106.664 14.1797L101.273 13.9453C101.539 12.5703 101.672 10.375 101.672 7.35938L107.18 6.72656ZM106.992 18.5391C107.07 20.1484 107.109 21.5 107.109 22.5938C107.109 23.6875 107.086 24.9688 107.039 26.4375L106.5 42L101.508 42.4219L101.039 19.2891L106.992 18.5391ZM136.242 23.8125L136.195 19.4766L141.188 18.9609L142.008 22.5234L145.594 18.5859H148.383L149.555 24.0703C149.555 24.0703 148.328 24.3359 145.875 24.8672C144.703 25.1172 143.492 25.3906 142.242 25.6875L141.914 41.7188L136.617 42.1875L136.242 23.8125ZM158.156 28.125C158.156 31.8906 158.352 35.1562 158.742 37.9219L163.359 37.6875C164.203 34.3438 164.625 31.0781 164.625 27.8906C164.625 26.6094 164.539 25.4688 164.367 24.4688C163.43 24 160.117 23.7656 154.43 23.7656H153.234C152.906 23.7656 152.547 23.7812 152.156 23.8125L153.164 18.375C153.43 18.3594 153.672 18.3438 153.891 18.3281C154.125 18.2969 154.359 18.2812 154.594 18.2812L155.297 18.2344C155.531 18.2344 156.188 18.2344 157.266 18.2344C160.359 18.2344 163.75 18.6484 167.438 19.4766C168.609 19.7734 169.328 20.2969 169.594 21.0469C170 22.2031 170.203 24.0859 170.203 26.6953C170.203 31.4609 169.477 36.0703 168.023 40.5234C167.898 40.9297 167.75 41.2734 167.578 41.5547C167.422 41.8359 167.141 42.0156 166.734 42.0938C166.328 42.1875 165.852 42.2734 165.305 42.3516C164.758 42.4297 164.219 42.5 163.688 42.5625C162.531 42.6719 161.734 42.7266 161.297 42.7266C160.859 42.7266 160.391 42.7188 159.891 42.7031C159.391 42.7031 158.844 42.6875 158.25 42.6562C156.688 42.5781 155.633 42.4375 155.086 42.2344C154.539 42.0469 154.164 41.7188 153.961 41.25C153.773 40.7812 153.586 40.0312 153.398 39C152.961 36.5938 152.742 33.8516 152.742 30.7734C152.742 29.6016 152.773 28.4375 152.836 27.2812L158.156 26.2266V28.125Z" fill="white"/>
<path d="M36 30C36 39.9411 27.9411 48 18 48C8.05887 48 0 39.9411 0 30C0 20.0589 19.0589 7 29 7C38.9411 7 36 20.0589 36 30Z" fill="white"/>
<path d="M0.406448 30C0.406448 39.9411 8.46532 48 18.4064 48C28.3476 48 36.4064 39.9411 36.4064 30C36.4064 20.0589 17.3476 7 7.40645 7C-2.53468 7 0.406448 20.0589 0.406448 30Z" fill="#FFAE11" fill-opacity="0.7"/>
</svg>
